<?xml version="1.0" standalone="no"?>
<!DOCTYPE svg PUBLIC "-//W3C//DTD SVG 20010904//EN"
 "http://www.w3.org/TR/2001/REC-SVG-20010904/DTD/svg10.dtd">
<svg version="1.0" xmlns="http://www.w3.org/2000/svg"
 width="162.000000pt" height="79.000000pt" viewBox="0 0 162.000000 79.000000"
 preserveAspectRatio="xMidYMid meet">
<metadata>
Created by potrace 1.16, written by Peter Selinger 2001-2019
</metadata>
<g transform="translate(0.000000,79.000000) scale(0.100000,-0.100000)"
fill="#000000" stroke="none">
<path d="M285 770 c-10 -11 -15 -20 -11 -20 4 0 0 -10 -8 -22 -9 -12 -16 -27
-16 -33 0 -5 8 4 18 20 24 38 40 52 75 60 l29 8 -26 -52 c-15 -28 -31 -51 -36
-51 -6 0 -22 -25 -37 -54 -29 -60 -49 -64 -38 -9 3 19 3 33 -2 30 -4 -2 -19
10 -33 27 -19 25 -21 28 -5 17 11 -7 7 -2 -8 13 -17 16 -38 25 -55 25 -27 -2
-27 -2 -2 -6 37 -7 46 -20 10 -15 -26 4 -30 1 -30 -17 0 -12 4 -20 9 -17 4 3
17 -10 27 -29 10 -19 23 -35 29 -35 6 0 19 -17 30 -37 10 -21 20 -32 22 -25 3
6 9 12 14 12 12 0 12 -177 -1 -185 -6 -3 -10 1 -10 9 0 9 -8 16 -17 16 -15 0
-16 2 -3 10 13 9 13 10 0 10 -9 0 -11 3 -4 8 6 4 -3 18 -25 37 -20 16 -30 22
-22 12 7 -9 10 -17 7 -17 -4 0 2 -10 13 -21 20 -21 20 -21 -9 -45 -15 -13 -35
-24 -43 -24 -19 0 -31 -16 -18 -24 5 -4 13 -1 16 4 5 8 11 7 18 -3 7 -7 36
-33 65 -56 28 -24 52 -51 52 -60 0 -10 3 -21 6 -24 6 -6 81 47 96 67 4 6 13 4
24 -5 15 -12 17 -12 12 1 -2 8 -14 17 -26 20 -22 5 -74 78 -66 92 2 3 -7 15
-21 26 -34 27 -35 78 -1 94 44 19 95 152 96 246 l0 42 -38 0 c-26 0 -45 -7
-57 -20z"/>
<path d="M0 195 c0 -142 3 -175 14 -175 7 0 28 -3 45 -6 21 -4 31 -3 31 5 0 7
-4 10 -9 7 -5 -4 -16 -3 -25 0 -12 5 -14 10 -6 20 8 9 9 61 4 168 -7 155 -7
156 -30 156 l-24 0 0 -175z"/>
</g>
</svg>
