<?xml version="1.0" standalone="no"?>
<!DOCTYPE svg PUBLIC "-//W3C//DTD SVG 20010904//EN"
 "http://www.w3.org/TR/2001/REC-SVG-20010904/DTD/svg10.dtd">
<svg version="1.0" xmlns="http://www.w3.org/2000/svg"
 width="300.000000pt" height="300.000000pt" viewBox="0 0 300.000000 300.000000"
 preserveAspectRatio="xMidYMid meet">
<metadata>
Created by potrace 1.11, written by Peter Selinger 2001-2013
</metadata>
<g transform="translate(0.000000,300.000000) scale(0.100000,-0.100000)"
fill="#000000" stroke="none">
<path d="M582 1857 c-44 -14 -116 -79 -132 -119 -8 -18 -14 -34 -16 -36 -1 -2
-14 9 -28 23 -35 35 -116 71 -157 70 -31 -1 -34 -4 -35 -30 -2 -109 92 -211
208 -224 7 -1 5 -28 -4 -36 -3 -3 -18 -8 -34 -11 -16 -3 -49 -15 -74 -26 -25
-12 -59 -22 -77 -24 -18 -2 -41 -8 -52 -13 -29 -16 -31 -14 -31 23 0 22 -6 36
-16 40 -21 8 -21 8 -27 -14 -4 -17 -12 -20 -54 -17 l-48 2 0 -150 0 -150 48 2
c26 2 47 -2 47 -7 0 -6 11 -10 25 -10 21 0 25 5 25 30 0 17 4 30 9 30 5 0 60
-20 121 -44 70 -27 124 -42 144 -40 35 3 295 109 313 127 7 7 15 26 18 42 8
43 -22 77 -68 80 -28 2 -49 14 -92 53 -30 28 -71 56 -90 62 l-36 12 3 55 3 56
45 13 c88 26 151 104 164 202 l5 42 -37 -1 c-20 -1 -52 -6 -70 -12z"/>
<path d="M1376 1737 c-16 -11 -18 -33 -17 -178 0 -157 5 -199 20 -199 3 0 7
46 9 103 1 56 4 127 8 157 12 110 12 120 4 125 -4 2 -15 -1 -24 -8z"/>
<path d="M1050 1715 c-8 -7 -35 -15 -60 -16 -25 -1 -53 -6 -62 -11 -43 -21 -4
-94 64 -122 89 -36 133 -63 133 -82 0 -36 -121 -92 -146 -67 -6 6 -3 24 7 48
15 36 15 38 0 25 -10 -7 -26 -26 -37 -41 -36 -51 11 -106 81 -94 48 8 112 49
133 84 26 44 5 69 -98 123 -49 25 -96 55 -103 66 -12 18 -11 22 7 32 18 9 25
7 46 -14 14 -14 25 -30 25 -36 0 -5 3 -10 8 -10 9 0 37 62 34 77 -1 6 2 14 8
18 17 10 11 35 -8 35 -10 0 -24 -7 -32 -15z"/>
<path d="M1719 1710 c-14 -8 -16 -30 -12 -167 3 -87 8 -162 13 -167 15 -15 28
3 35 51 8 52 35 127 43 119 3 -3 6 -32 8 -63 3 -56 9 -107 18 -148 3 -11 5
-28 5 -37 1 -10 5 -18 9 -18 5 0 7 75 6 168 -3 129 -6 166 -16 164 -7 -2 -18
-11 -25 -20 -7 -9 -22 -32 -35 -49 -13 -18 -27 -33 -31 -33 -8 0 -1 131 9 183
6 28 -1 33 -27 17z"/>
<path d="M2312 1711 c-10 -6 -12 -42 -9 -163 2 -85 7 -161 11 -167 12 -19 29
-7 32 22 4 43 33 135 44 142 6 4 10 -11 11 -37 0 -24 2 -50 3 -58 4 -19 19
-131 20 -147 1 -7 6 -13 11 -13 6 0 9 17 8 38 -5 94 -7 220 -3 252 4 31 2 35
-15 32 -11 -2 -21 -7 -23 -12 -2 -4 -19 -30 -38 -56 l-36 -49 5 95 c3 53 7
102 9 109 4 17 -13 23 -30 12z"/>
<path d="M1968 1615 c-6 -14 -18 -25 -27 -25 -37 -1 -79 -60 -84 -117 -9 -93
68 -145 127 -87 14 15 26 22 26 16 0 -23 41 -24 66 -1 19 18 24 19 24 7 0 -9
8 -26 18 -37 17 -21 17 -20 17 51 0 40 3 94 7 121 l8 47 -30 -15 c-16 -8 -32
-15 -35 -15 -26 1 -34 -4 -45 -27 -8 -16 -14 -30 -15 -33 -1 -3 -7 -18 -13
-33 -7 -16 -12 -34 -12 -42 0 -21 -47 -46 -74 -39 -45 11 -43 110 4 166 l19
23 1 -47 c0 -46 19 -70 21 -28 1 11 2 23 3 28 5 19 25 79 31 95 12 28 -24 21
-37 -8z m129 -120 c-7 -53 -11 -61 -39 -76 -19 -10 -20 -9 -13 23 10 43 36 98
48 98 5 0 7 -20 4 -45z"/>
<path d="M2534 1630 c-26 -10 -74 -71 -74 -93 0 -9 9 -21 20 -27 16 -9 22 -6
36 22 32 65 78 97 69 49 -5 -26 -45 -113 -60 -131 -46 -54 -10 -95 58 -66 45
18 49 39 8 33 -16 -3 -32 -3 -34 0 -3 2 13 39 34 81 21 42 39 85 39 95 0 11
-13 24 -35 33 -19 7 -36 14 -37 13 -2 0 -13 -4 -24 -9z"/>
<path d="M2694 1618 c-5 -13 -8 -25 -9 -28 0 -3 -9 -40 -20 -84 -18 -75 -18
-79 -1 -92 14 -10 22 -10 37 -1 22 14 28 9 31 -26 1 -15 5 -27 9 -27 9 0 19
27 19 51 0 10 14 29 31 41 28 21 29 23 11 28 -19 5 -19 7 -7 45 15 42 9 60
-18 50 -17 -7 -40 -62 -32 -76 7 -11 -31 -49 -49 -49 -18 0 -6 49 30 126 30
63 30 64 0 64 -17 0 -27 -7 -32 -22z"/>
<path d="M2969 1626 c-2 -3 -29 -6 -60 -7 -31 -1 -66 -6 -79 -11 l-24 -9 22
-15 c19 -13 27 -13 68 1 26 9 49 13 51 11 10 -9 -41 -116 -54 -116 -15 0 -17
-12 -4 -25 6 -6 -1 -38 -19 -83 -27 -70 -30 -102 -9 -102 5 0 11 6 13 13 32
121 49 158 77 172 16 9 27 20 24 26 -4 5 -11 7 -16 4 -17 -11 -9 25 16 76 14
27 23 54 20 59 -7 11 -19 13 -26 6z"/>
<path d="M1640 1604 c0 -9 -6 -14 -12 -11 -7 2 -24 0 -37 -4 -19 -8 -22 -14
-16 -37 4 -15 22 -46 41 -69 19 -23 34 -44 34 -47 0 -11 -43 -45 -52 -40 -4 3
-8 14 -8 25 0 28 -14 23 -26 -9 -9 -25 -8 -31 7 -40 34 -21 76 -14 97 16 21
29 17 57 -12 81 -31 26 -56 69 -50 85 9 24 24 19 24 -6 0 -24 16 -56 23 -48 3
3 11 31 19 63 l15 57 -24 0 c-14 0 -23 -6 -23 -16z"/>
<path d="M2238 1608 c-2 -6 -15 -13 -28 -15 -14 -2 -29 -8 -34 -13 -15 -15 3
-59 41 -101 l36 -40 -21 -21 c-24 -25 -53 -18 -47 12 2 11 2 20 0 20 -6 0 -37
-61 -33 -65 36 -30 81 -31 108 -3 29 31 25 51 -20 103 -22 25 -40 55 -40 66 0
31 23 17 32 -19 11 -43 24 -40 32 6 3 20 9 47 12 60 5 17 2 22 -14 22 -11 0
-22 -5 -24 -12z"/>
<path d="M1189 1593 c-1 -5 -1 -11 -1 -14 1 -4 4 -44 7 -90 6 -78 6 -117 0
-179 -2 -28 11 -60 25 -60 5 0 9 21 9 48 -2 97 -1 101 24 96 67 -12 111 143
52 182 -17 11 -25 11 -47 0 -24 -13 -27 -12 -31 5 -5 18 -36 27 -38 12z m105
-100 c-3 -35 -38 -82 -52 -68 -11 11 -1 90 14 113 15 23 18 24 29 9 6 -9 10
-33 9 -54z"/>
<path d="M1525 1577 c-11 -6 -29 -13 -40 -14 -29 -5 -43 -22 -64 -83 -17 -46
-18 -58 -7 -75 19 -28 44 -30 64 -4 l18 22 13 -32 c19 -46 27 -38 26 27 0 31
3 79 8 105 10 60 7 69 -18 54z m-26 -95 c-8 -36 -43 -81 -55 -70 -8 8 14 75
34 106 20 31 32 11 21 -36z"/>
</g>
</svg>
